# xmcd CD database file
#
# Track frame offsets:
#	150
#	13150
#	26657
#	38882
#	51103
#	62952
#	75881
#	93426
#	107153
#	118012
#	131876
#	142432
#	156457
#	168712
#	180418
#
# Disc length: 2568 seconds
#
# Revision: 1
# Processed by: cddbd v1.5.1PL2 Copyright (c) Steve Scherf et al.
# Submitted via: CDex 1.51
#
DISCID=d70a060f
DTITLE=Various Artist - All That Soul CD1
DYEAR=2005
DGENRE=Soul
TTITLE0=When A Man Loves A Woman - Percy Sledge
TTITLE1=Stand By Me - Ben E. King
TTITLE2=Under The Boardwalk - The Drifters
TTITLE3=(Sittin' On) The Dock Of The Bay - Otis Redding
TTITLE4=Soul Man - Sam and Dave
TTITLE5=Green Onions - Booker T. and The MG's
TTITLE6=Love Don't Live Here Anymore - Rose Royce
TTITLE7=A Fool For You - Ray Charles
TTITLE8=R-E-S-P-E-C-T - Aretha Franklin
TTITLE9=Knock On Wood - Eddie Floyd
TTITLE10=Sweet Soul Music - Arthur Conley
TTITLE11=Mustang Sally - Wilson Pickett
TTITLE12=Poison Ivy - The Coasters
TTITLE13=Got To Get You Off My Mind - Solomon Burke
TTITLE14=And I Love Him - Esther Phillips
EXTD=Wayne Fallows YEAR: 2005
EXTT0=
EXTT1=
EXTT2=
EXTT3=
EXTT4=
EXTT5=
EXTT6=
EXTT7=
EXTT8=
EXTT9=
EXTT10=
EXTT11=
EXTT12=
EXTT13=
EXTT14=
PLAYORDER=
